# xmcd
#
# Track frame offsets: 
#        150
#        31013
#        56091
#        90030
#        119275
#        144532
#        170886
#        178415
#        208883
#        258984
#        290488
#        301760
#
# Disc length: 4337 seconds
#
# Revision: 0
# Processed by: cddbd v1.5.2PL0 Copyright (c) Steve Scherf et al.
# Submitted via: ExactAudioCopy v0.99pb4
#
DISCID=ab10ef0c
DTITLE=難得胡塗 - 閔惠芬
DYEAR=2002
DGENRE=中樂
TTITLE0=江河水
TTITLE1=寒鴉戲水
TTITLE2=漁舟唱晚
TTITLE3=閑居吟
TTITLE4=二泉映月
TTITLE5=月夜
TTITLE6=賽馬
TTITLE7=昭君出塞
TTITLE8=絕鼓探道
TTITLE9=花燈調
TTITLE10=打豬草
TTITLE11=迷糊調
EXTD=
EXTT0=
EXTT1=
EXTT2=
EXTT3=
EXTT4=
EXTT5=
EXTT6=
EXTT7=
EXTT8=
EXTT9=
EXTT10=
EXTT11=
PLAYORDER=
